<svg width="68" height="54" viewBox="0 0 68 54" fill="none" xmlns="http://www.w3.org/2000/svg">
<path fill-rule="evenodd" clip-rule="evenodd" d="M21 19C19.5 19 19 19.6716 19 20.5C19 21.3284 19.5 22 21 22C22.3397 22 22.9111 22.8035 23.115 23.0904L23.121 23.0987C23.3197 23.3779 24 24.432 24 26C24 27.5 24.6716 28 25.5 28C26.3284 28 27 27.5 27 26C27 24.068 26.4046 22.5209 25.504 21.2763C24.6035 20.0318 23.1471 19 21 19Z" fill="#0C131D"/>
<path d="M19 20.5C19 19.6716 19.5 19 21 19C23.1471 19 24.6035 20.0318 25.504 21.2763C26.4046 22.5209 27 24.068 27 26C27 27.5 26.3284 28 25.5 28C24.6716 28 24 27.5 24 26C24 24.432 23.3197 23.3779 23.121 23.0987L23.115 23.0904C22.9111 22.8035 22.3397 22 21 22C19.5 22 19 21.3284 19 20.5Z" fill="white"/>
<path d="M8 25.8624L8 28.1376C8 39.8194 15.2029 46 22 46C25.3869 46 28.8745 44.4654 31.5216 41.4803C30.5413 39.899 29.7338 38.121 29.1405 36.1665C27.2349 39.2507 24.1174 41 21 41C16 41 11 36.5 11 29.2098V27.2285C11 19.6814 15.5 15 21 15C24.0581 15 26.807 16.4472 28.6451 19.0297C29.2324 16.159 30.2018 13.7178 31.4749 11.6907C29.1093 9.25978 25.8602 8 22 8C17.9797 8 14.6224 9.36641 12.2354 11.999C9.82002 14.663 8 19.0684 8 25.8624Z" fill="white"/>
<path fill-rule="evenodd" clip-rule="evenodd" d="M32 28.1376L32 25.8624C32 19 33.82 14.663 36.2354 11.999C36.3304 11.8942 36.427 11.7914 36.5251 11.6907C38.8907 9.25978 42.1398 8 46 8C50.0203 8 53.3776 9.36641 55.7646 11.9991C58.18 14.663 60 19.0684 60 25.8624V28.1376C60 39.8193 52.7971 46 46 46C42.6131 46 39.1255 44.4654 36.4784 41.4803C35.5299 40.4107 34.6893 39.1549 34 37.7167C32.7523 35.1135 32 31.9128 32 28.1376ZM45 15C50.5 15 55 19.6814 55 27.2285V29.2098C55 36.5 50 41 45 41C42.5495 41 40.099 39.9191 38.2371 37.9586C37.0329 36.6907 36.075 35.0548 35.5225 33.1056C35.1861 31.919 35 30.6163 35 29.2098V27.2285C35 19.6814 39.5 15 45 15Z" fill="white"/>
<path fill-rule="evenodd" clip-rule="evenodd" d="M55 27.2285C55 19.6814 50.5 15 45 15C39.5 15 35 19.6814 35 27.2285V29.2098C35 30.6163 35.1861 31.919 35.5225 33.1056C36.075 35.0548 37.0329 36.6907 38.2371 37.9586C40.099 39.9191 42.5495 41 45 41C50 41 55 36.5 55 29.2098V27.2285ZM45 19C43.5 19 43 19.6716 43 20.5C43 21.3284 43.5 22 45 22C46.3397 22 46.9111 22.8035 47.115 23.0904L47.121 23.0987C47.3197 23.3779 48 24.432 48 26C48 27.5 48.6716 28 49.5 28C50.3284 28 51 27.5 51 26C51 24.068 50.4046 22.5209 49.504 21.2763C48.6035 20.0318 47.1471 19 45 19Z" fill="#0C131D"/>
<path d="M43 20.5C43 19.6716 43.5 19 45 19C47.1471 19 48.6035 20.0318 49.504 21.2763C50.4046 22.5209 51 24.068 51 26C51 27.5 50.3284 28 49.5 28C48.6716 28 48 27.5 48 26C48 24.432 47.3197 23.3779 47.121 23.0987L47.115 23.0904C46.9111 22.8035 46.3397 22 45 22C43.5 22 43 21.3284 43 20.5Z" fill="white"/>
<path fill-rule="evenodd" clip-rule="evenodd" d="M4 28.1376C4 41.5 12.5 50 22 50C26.4863 50 30.7496 48.1044 34 44.6963C37.2504 48.1044 41.5137 50 46 50C55.5 50 64 41.5 64 28.1376V25.8624C64 10.8786 55.9411 4 46 4C41.3899 4 37.1845 5.47929 34 8.56021C30.8155 5.47929 26.6101 4 22 4C12.0589 4 4 10.8786 4 25.8624L4 28.1376ZM8 25.8624L8 28.1376C8 39.8194 15.2029 46 22 46C25.3869 46 28.8745 44.4654 31.5216 41.4803C30.5413 39.899 29.7338 38.121 29.1405 36.1665C27.2349 39.2507 24.1174 41 21 41C16 41 11 36.5 11 29.2098V27.2285C11 19.6814 15.5 15 21 15C24.0581 15 26.807 16.4472 28.6451 19.0297C29.2324 16.159 30.2018 13.7178 31.4749 11.6907C29.1093 9.25978 25.8602 8 22 8C17.9797 8 14.6224 9.36641 12.2354 11.999C9.82002 14.663 8 19.0684 8 25.8624ZM21 19C19.5 19 19 19.6716 19 20.5C19 21.3284 19.5 22 21 22C22.3397 22 22.9111 22.8035 23.115 23.0904L23.121 23.0987C23.3197 23.3779 24 24.432 24 26C24 27.5 24.6716 28 25.5 28C26.3284 28 27 27.5 27 26C27 24.068 26.4046 22.5209 25.504 21.2763C24.6035 20.0318 23.1471 19 21 19ZM32 25.8624L32 28.1376C32 31.9128 32.7523 35.1135 34 37.7167C34.6893 39.1549 35.5299 40.4107 36.4784 41.4803C39.1255 44.4654 42.6131 46 46 46C52.7971 46 60 39.8193 60 28.1376V25.8624C60 19.0684 58.18 14.663 55.7646 11.9991C53.3776 9.36641 50.0203 8 46 8C42.1398 8 38.8907 9.25978 36.5251 11.6907C36.427 11.7914 36.3304 11.8942 36.2354 11.999C33.82 14.663 32 19 32 25.8624Z" fill="#0C131D"/>
<path fill-rule="evenodd" clip-rule="evenodd" d="M22 54C9.79706 54 -4.76837e-07 43.1807 3.8147e-06 28.1376L0 25.8624C0 17.6725 2.20941 11.1468 6.30876 6.62549C10.4365 2.07289 16.0792 0 22 0C26.298 0 30.4567 1.09101 34 3.44541C37.5433 1.09101 41.702 0 46 0C51.9208 0 57.5635 2.07289 61.6912 6.6255C65.7906 11.1468 68 17.6726 68 25.8624V28.1376C68 43.1807 58.2029 54 46 54C41.6352 54 37.4857 52.5703 34 50.0075C30.5143 52.5703 26.3648 54 22 54ZM32.7341 45.9036C29.6794 48.549 25.9251 50 22 50C12.5 50 4 41.5 4 28.1376L4 25.8624C4 10.8786 12.0589 4 22 4C26.6101 4 30.8155 5.47929 34 8.56021C37.1845 5.47929 41.3899 4 46 4C55.9411 4 64 10.8786 64 25.8624V28.1376C64 41.5 55.5 50 46 50C42.0749 50 38.3206 48.549 35.2659 45.9036C34.8291 45.5253 34.4066 45.1226 34 44.6963C33.5934 45.1226 33.1709 45.5253 32.7341 45.9036Z" fill="white"/>
</svg>
