<svg preserveAspectRatio="none" width="100%" height="100%" overflow="visible" style="display: block;" viewBox="0 0 80 80" fill="none" xmlns="http://www.w3.org/2000/svg">
<path id="Frame" fill-rule="evenodd" clip-rule="evenodd" d="M22.8346 0L57.1654 0C65.1055 0 67.9848 0.826728 70.8875 2.37915C73.7903 3.93157 76.0684 6.20969 77.6208 9.11247C79.1733 12.0152 80 14.8945 80 22.8346V57.1654C80 65.1055 79.1733 67.9848 77.6208 70.8875C76.0684 73.7903 73.7903 76.0684 70.8875 77.6208C67.9848 79.1733 65.1055 80 57.1654 80H22.8346C14.8945 80 12.0152 79.1733 9.11247 77.6208C6.20969 76.0684 3.93157 73.7903 2.37915 70.8875C0.826728 67.9848 0 65.1055 0 57.1654L0 22.8346C0 14.8945 0.826728 12.0152 2.37915 9.11247C3.93157 6.20969 6.20969 3.93157 9.11247 2.37915C12.0152 0.826728 14.8945 0 22.8346 0Z" fill="var(--fill-0, #0C73FE)"/>
</svg>
