<svg preserveAspectRatio="none" width="100%" height="100%" overflow="visible" style="display: block;" viewBox="0 0 18 18" fill="none" xmlns="http://www.w3.org/2000/svg">
<path id="icon" fill-rule="evenodd" clip-rule="evenodd" d="M0 9C0 4.02944 4.02944 0 9 0C13.9706 0 18 4.02944 18 9C18 13.9706 13.9706 18 9 18C6.10011 18 3.52035 16.6274 1.87602 14.5005C0.700164 12.9796 0 11.0702 0 9ZM11.7876 15.423L10.8328 13.8317L9 13.2208V11.5L10.6099 10.2926L9.26988 8.459L4.37092 9.55352L2.02695 8.38153C2.00911 8.58531 2 8.79159 2 9C2 10.612 2.54369 12.0943 3.45829 13.2772C4.74019 14.9353 6.74553 16 9 16C9.99074 16 10.9334 15.7942 11.7876 15.423ZM13.6358 3.75494L13.2208 5.00002H11.0858L9.8919 3.80614L8.37975 4.88625L12.7176 7.25234L14.0662 9.50002H15.9824C15.9941 9.33486 16 9.16812 16 9C16 6.91197 15.0858 5.03747 13.6358 3.75494Z" fill="var(--fill-0, #848F9D)"/>
</svg>
