<svg preserveAspectRatio="none" width="100%" height="100%" overflow="visible" style="display: block;" viewBox="0 0 24 24" fill="none" xmlns="http://www.w3.org/2000/svg">
<g id="Russian_Passport">
<path id="Vector" d="M14 7.53518V10C15.849 10 15.9886 10.4273 15.9991 8.51656C16.0009 8.19361 16.156 7.8886 16.4188 7.70088L23 3C23 9 21.0007 14 14 14V15C16.5 15 16 16 16 19H15C15 17 14.0189 17 13 17L15 20C13.5509 21.3271 10.4491 21.3271 9 20L11 17C9.97724 17 9 17 9 19H8C8 16 7.5 15 10 15V14C3.02779 14 1 9 1 3L7.58124 7.70088C7.84403 7.8886 7.99817 8.19179 8.00168 8.51472C8.01783 10 8.18884 10 10 10V7.53518C10 7.20083 9.8329 6.8886 9.5547 6.70313L7 4.99998C7 4 8 4 8 4H10C10.6667 4 12 4.4 12 6C12 4.4 13.3333 4 14 4H16C16 4 17 4 17 5L14.4453 6.70313C14.1671 6.8886 14 7.20083 14 7.53518Z" fill="var(--fill-0, #9EA9B7)"/>
<circle id="Ellipse 88" cx="19" cy="18" r="2" fill="var(--fill-0, #9EA9B7)"/>
<path id="Rectangle 1408" d="M13 3L14 3.5L15 3V5H13V3Z" fill="var(--fill-0, #9EA9B7)"/>
<path id="Rectangle 1409" d="M9 3L10 3.5L11 3V5H9V3Z" fill="var(--fill-0, #9EA9B7)"/>
<path id="Rectangle 1411" d="M6 18.5L9 18V19L6 19.5V18.5Z" fill="var(--fill-0, #9EA9B7)"/>
<path id="Rectangle 1412" d="M18 18.5L15 18V19L18 19.5V18.5Z" fill="var(--fill-0, #9EA9B7)"/>
<path id="Union" fill-rule="evenodd" clip-rule="evenodd" d="M2.43036 13.7874C2.21179 13.9404 2.12308 14.2267 2.21012 14.4982L2.42326 15.1628C2.53325 15.5057 2.87339 15.6985 3.1824 15.6398L6.27633 20.0593C6.48422 20.3563 6.87656 20.4403 7.15264 20.247C7.42872 20.0537 7.484 19.6562 7.27611 19.3593L4.18669 14.9461C4.36069 14.6752 4.2993 14.2779 4.0086 14.0525L3.45698 13.6249C3.23175 13.4504 2.93245 13.4358 2.71392 13.5888L2.43036 13.7874Z" fill="var(--fill-0, #9EA9B7)"/>
</g>
</svg>
