<svg width="24" height="24" viewBox="0 0 24 24" fill="none" xmlns="http://www.w3.org/2000/svg">
<path d="M7.88399 6.85908C9.2416 4.59641 9.9204 3.46507 10.7982 3.08129C11.5644 2.74634 12.4356 2.74634 13.2017 3.08129C14.0795 3.46507 14.7583 4.5964 16.1159 6.85907L19.6382 12.7295C21.0659 15.109 21.7797 16.2987 21.6884 17.2776C21.6089 18.1311 21.168 18.9099 20.477 19.4172C19.6845 19.9991 18.2971 19.9991 15.5223 19.9991H8.47768C5.70283 19.9991 4.3154 19.9991 3.52295 19.4172C2.83197 18.9099 2.39105 18.1311 2.31148 17.2776C2.22024 16.2987 2.93406 15.109 4.36171 12.7295L7.88399 6.85908Z" fill="#FFCC74"/>
<path d="M13 13.5V8H11V13.5H13Z" fill="black"/>
<path d="M12 17C12.5523 17 13 16.5523 13 16C13 15.4477 12.5523 15 12 15C11.4477 15 11 15.4477 11 16C11 16.5523 11.4477 17 12 17Z" fill="black"/>
</svg>
