<svg width="30" height="30" viewBox="0 0 30 30" fill="none" xmlns="http://www.w3.org/2000/svg">
<g>
<path d="M15 16C16.6569 16 18 14.6569 18 13C18 11.3431 16.6569 10 15 10C13.3431 10 12 11.3431 12 13C12 14.6569 13.3431 16 15 16Z" fill="#5A6472"/>
<path fill-rule="evenodd" clip-rule="evenodd" d="M24.2884 18.8955C25.3722 17.1915 26 15.1691 26 13C26 6.92487 21.0751 2 15 2C8.92487 2 4 6.92487 4 13C4 15.1691 4.62781 17.1915 5.71163 18.8955C8.68731 23.9553 14.5 27 14.5 27H15.5C15.5 27 21.3127 23.9553 24.2884 18.8955ZM12 7H18L19 9H20C21.1046 9 22 9.89543 22 11V16C22 17.1046 21.1046 18 20 18H10C8.89543 18 8 17.1046 8 16V11C8 9.89543 8.89543 9 10 9H11L12 7Z" fill="#5A6472"/>
</g>
</svg>
