<svg width="30" height="30" viewBox="0 0 30 30" fill="none" xmlns="http://www.w3.org/2000/svg">
<g opacity="0.6">
<path d="M23.5037 5.25003C22.2971 5.4224 21.1635 5.93144 20.2331 6.71874C18.8328 7.90361 17.4968 9.16151 16.2307 10.487L7.55599 8.20418C6.33982 7.88414 5.08412 8.5634 4.68644 9.75644L12.7892 14.3866L9.81737 17.8537L6.45433 17.1811L4.33301 19.3024L8.57565 21.4237L10.697 25.6663L12.8183 23.545L12.1457 20.1819L15.6127 17.2102L20.2428 25.3128C21.4358 24.9151 22.1151 23.6594 21.795 22.4432L19.5123 13.7687C20.8378 12.5025 22.0957 11.1666 23.2806 9.76624C24.0679 8.83579 24.5769 7.70224 24.7493 6.49565L24.7687 6.35955C24.813 6.04972 24.7068 5.73513 24.4855 5.51383C24.2642 5.29252 23.9496 5.18632 23.6398 5.23058L23.5037 5.25003Z" fill="#5A6472"/>
</g>
</svg>
