<svg width="30" height="30" viewBox="0 0 30 30" fill="none" xmlns="http://www.w3.org/2000/svg">
<g>
<path d="M10.0769 7.21964C10 7.60603 10 8.07069 10 9V11C10 11.9293 10 12.394 10.0769 12.7804C10.3925 14.3671 11.6329 15.6075 13.2196 15.9231C13.606 16 14.0707 16 15 16C15.9293 16 16.394 16 16.7804 15.9231C18.3671 15.6075 19.6075 14.3671 19.9231 12.7804C20 12.394 20 11.9293 20 11V9C20 8.07069 20 7.60603 19.9231 7.21964C19.6075 5.63288 18.3671 4.39249 16.7804 4.07686C16.394 4 15.9293 4 15 4C14.0707 4 13.606 4 13.2196 4.07686C11.6329 4.39249 10.3925 5.63288 10.0769 7.21964Z" fill="#5A6472"/>
<path d="M13 18C9.13401 18 6 21.134 6 25H24C24 21.134 20.866 18 17 18H13Z" fill="#5A6472"/>
</g>
</svg>
