<svg width="36" height="36" viewBox="0 0 36 36" fill="none" xmlns="http://www.w3.org/2000/svg">
<path d="M18 3C26.2843 3 33 9.71573 33 18C33 26.2843 26.2843 33 18 33C13.1659 33 8.86515 30.7097 6.12695 27.168C4.16743 24.6333 3 21.4487 3 18C3 9.71573 9.71573 3 18 3ZM11.3838 20.2939L10.8623 20.4102L9.13184 19.5449C9.38589 21.0169 9.99707 22.3637 10.874 23.498C12.5249 25.6334 15.1021 27 18 27C18.6621 27 19.3059 26.9261 19.9258 26.791L19.748 26.4951L17.5254 25.7539L16.5 25.4121V21L17.0996 20.5498L18.3291 19.627L17.7725 18.8662L11.3838 20.2939ZM25.4121 13.5H23.2656L24.2949 14.0615L24.6523 14.2568L24.8623 14.6064L26.4482 17.25H26.9658C26.8402 15.7259 26.3367 14.3108 25.5459 13.0967L25.4121 13.5Z" fill="#3BBF56" stroke="white" stroke-width="3"/>
</svg>
