<svg width="36" height="36" viewBox="0 0 36 36" fill="none" xmlns="http://www.w3.org/2000/svg">
<path d="M27.75 1.5C31.426 1.5 34.5 4.38718 34.5 8.0625C34.5 9.96048 33.5469 11.7849 32.6143 13.2607C32.1326 14.0229 31.6059 14.7652 31.1357 15.4346C30.6533 16.1214 30.2362 16.7225 29.915 17.2646L29.4795 18H26.0205L25.585 17.2646C25.2635 16.7223 24.8458 16.1213 24.3633 15.4346C23.9756 14.8829 23.5518 14.2803 23.1445 13.6592L23.8145 15H14.04C13.6259 15.0001 13.29 15.3358 13.29 15.75C13.29 16.1323 13.5776 16.4482 13.9473 16.4932L14.0781 16.5H21.54C25.268 16.5 28.29 19.5221 28.29 23.25C28.29 26.9779 25.268 30 21.54 30H12.8037L12.8691 29.6768C11.8853 31.6464 9.85146 33 7.5 33C4.18629 33 1.5 30.3137 1.5 27C1.5 23.6863 4.18629 21 7.5 21C9.85115 21 11.8851 22.353 12.8691 24.3223L12.8037 24H21.54C21.9543 24 22.29 23.6642 22.29 23.25C22.29 22.8358 21.9543 22.5 21.54 22.5H14.04C10.3122 22.4999 7.29004 19.4779 7.29004 15.75C7.29004 12.0221 10.3122 9.00007 14.04 9H20.8145L21.2295 9.8291L21.29 9.9502C21.11 9.3364 21 8.7039 21 8.0625C21 4.38718 24.074 1.5 27.75 1.5ZM27.75 7.5C27.3358 7.5 27 7.83579 27 8.25C27 8.66421 27.3358 9 27.75 9C28.1642 9 28.5 8.66421 28.5 8.25C28.5 7.83579 28.1642 7.5 27.75 7.5Z" fill="#6C8DB7" stroke="white" stroke-width="3"/>
</svg>
