<svg preserveAspectRatio="none" width="100%" height="100%" overflow="visible" style="display: block;" viewBox="0 0 16 20.5" fill="none" xmlns="http://www.w3.org/2000/svg">
<path id="icon" fill-rule="evenodd" clip-rule="evenodd" d="M8.5 0L7.50024 0.499969C7.50024 2.38454 5.8436 3.61512 4.52181 4.69234C2.49948 6.34044 0.0562137 8.33159 0.00119084 12.3608L0 12.5C0 16.9183 3.58172 20.5 8 20.5C12.4057 20.5 15.9796 16.9387 16 12.5377L15.9979 12.3165C15.9779 11.4268 15.8124 10.5721 15.5241 9.77579C15.1596 8.70305 14.6273 7.65947 13.9414 6.7533L13.8924 6.68976L13.013 7.1124C13.3688 8.65386 13.1733 9.70094 12.788 10.3558C12.4053 11.0064 11.8042 11.3271 11.2087 11.3767C10.6038 11.4271 10.0226 11.1982 9.66987 10.7632C9.32926 10.3431 9.14237 9.65474 9.47459 8.65808C10.7425 4.85443 9.3992 1.25888 8.5 0ZM4.00024 13.5001C4.00024 12.0164 4.63956 10.6833 5.64972 9.85742L6.46548 10.2179C6.53603 11.5408 6.91701 12.922 7.75022 13.9709C8.34846 14.724 9.00898 15.0374 9.58778 14.9612C10.1303 14.8898 10.652 14.4711 11.0327 13.6893L11.9803 13.9523C11.7838 16.1689 10.1269 18.0001 8.00024 18.0001C5.73048 18.0001 4.00024 15.9205 4.00024 13.5001Z" fill="currentColor"/>
</svg>
