<svg width="36" height="36" viewBox="0 0 36 36" fill="none" xmlns="http://www.w3.org/2000/svg">
<path d="M19.9707 1.37793C21.5475 3.58538 23.7141 9.47389 21.6348 15.7119C21.2658 16.8191 21.5421 17.2925 21.6699 17.4502C21.8518 17.6745 22.218 17.8595 22.6885 17.8203C23.1177 17.7845 23.5725 17.5607 23.8887 17.0234C24.2162 16.4666 24.5332 15.3167 24.0576 13.2559L23.7881 12.0869L24.8701 11.5664L26.1885 10.9326L27.2832 10.4062L28.0234 11.3662H28.0244L28.0254 11.3682L28.0996 11.4629L28.1035 11.4688L28.1084 11.4746C29.2429 12.9735 30.1112 14.6838 30.7041 16.4277C31.1253 17.598 31.3905 18.8414 31.4727 20.1318L31.4961 20.6914L31.4971 20.7012V20.7109L31.5 21.043V21.0635C31.4657 28.4902 25.4346 34.5 18 34.5C10.5442 34.5 4.5 28.4558 4.5 21V20.9873L4.50195 20.7783V20.7705C4.59489 13.9722 8.80979 10.5914 11.835 8.12598C12.8774 7.27645 13.861 6.51213 14.6201 5.62402C15.3523 4.76739 15.75 3.93259 15.75 3V2.07324L16.5791 1.6582L19.2256 0.334961L19.9707 1.37793ZM14.3965 19.3623C13.8388 20.2315 13.5 21.3137 13.5 22.5C13.5 25.5035 15.6119 27.7498 18 27.75C19.307 27.75 20.5274 27.0793 21.3672 25.9795C21.1165 26.0744 20.853 26.1424 20.5771 26.1787C18.9855 26.3881 17.5263 25.4929 16.4512 24.1396C15.3327 22.7317 14.6965 21.0379 14.3965 19.3623Z" fill="#F25122" stroke="white" stroke-width="3"/>
</svg>
