<svg width="36" height="36" viewBox="0 0 36 36" fill="none" xmlns="http://www.w3.org/2000/svg">
<path d="M16.6953 4.30273C17.4048 9.64278 21.6214 12.8815 26.7559 12.167L28.251 11.959L28.4502 13.4551L28.8955 16.8008L29.0918 18.2783L28.9736 18.2939L30.124 18.5361L31.5771 18.8418L31.2861 20.2988C30.9671 21.8949 31.824 23.1651 33.3076 23.4766L34.7617 23.7812L34.4707 25.2383L34.2119 26.5332L33.915 28.0186L32.4336 27.708C30.9609 27.3992 29.7034 28.2075 29.3857 29.7939L29.0889 31.2783L27.6074 30.9678L26.3428 30.7031L24.8887 30.3984L25.1797 28.9404C25.499 27.344 24.6416 26.073 23.1572 25.7617L21.7021 25.457L21.9941 23.999L22.2539 22.7041L22.5518 21.2207L24.0322 21.5312C25.5045 21.8399 26.7624 21.0312 27.0801 19.4443L27.2598 18.541C22.3245 19.4012 19.2603 23.6129 19.9541 28.8359L20.1504 30.3135L18.6738 30.5186L15.4062 30.9736L13.9111 31.1816L13.7119 29.6855C13.0025 24.3449 8.78595 21.1056 3.65137 21.8203L2.15625 22.0283L1.95703 20.5322L1.5127 17.1865L1.31641 15.709L2.79297 15.5039C7.93561 14.788 11.1642 10.4996 10.4541 5.15234L10.2578 3.6748L11.7344 3.46875L15.001 3.01465L16.4961 2.80664L16.6953 4.30273Z" fill="#0C73FE" stroke="white" stroke-width="3"/>
</svg>
